<svg width="708" height="192" viewBox="0 0 708 192" fill="none" xmlns="http://www.w3.org/2000/svg">
<path d="M680.839 26.8492C680.839 25.4614 682.562 24.8179 683.472 25.8658L705.207 50.8951C706.05 51.866 705.361 53.3782 704.075 53.3785H682.339C681.511 53.3785 680.839 52.7068 680.839 51.8785V26.8492Z" fill="white" stroke="black"/>
<path d="M622.391 135.8V42.213V29.5711C622.391 26.8097 624.63 24.5711 627.391 24.5711H672.337C675.098 24.5711 677.337 26.8097 677.337 29.5711V50.7038C677.337 53.4653 679.575 55.7038 682.337 55.7038H701.757C704.518 55.7038 706.757 57.9424 706.757 60.7038V135.8C706.757 138.561 704.518 140.8 701.757 140.8H627.391C624.63 140.8 622.391 138.561 622.391 135.8Z" fill="white" stroke="black"/>
<path d="M648.776 62.9681L700.267 132.152H694.148H690.691H687.01H680.373L628.881 62.9681H636.02H638.828H642.138H648.776Z" fill="white"/>
<path d="M636.02 62.9681H628.881L680.373 132.152H687.01M636.02 62.9681H638.828H642.138M636.02 62.9681L687.01 132.152M687.01 132.152H690.691H694.148M642.138 62.9681H648.776L700.267 132.152H694.148M642.138 62.9681L694.148 132.152" stroke="#2B579A" stroke-width="2"/>
<path d="M648.776 132.152L700.267 62.9681H694.148H690.691H687.01H680.373L628.881 132.152H636.02H638.828H642.138H648.776Z" fill="white"/>
<path d="M636.02 132.152H628.881L680.373 62.9681H687.01M636.02 132.152H638.828H642.138M636.02 132.152L687.01 62.9681M687.01 62.9681H690.691H694.148M642.138 132.152H648.776L700.267 62.9681H694.148M642.138 132.152L694.148 62.9681" stroke="#2B579A" stroke-width="2"/>
<mask id="path-7-outside-1_1410_315" maskUnits="userSpaceOnUse" x="7" y="42" width="611" height="105" fill="black">
<rect fill="white" x="7" y="42" width="611" height="105"/>
<path d="M73.984 51.784L72.32 60.872H48L33.92 141H22.272L36.352 60.872H12.032L13.696 51.784H73.984ZM147.202 70.856L134.786 141H123.138L124.93 130.76C122.114 134.344 118.53 137.117 114.178 139.08C109.826 141.043 105.303 142.024 100.61 142.024C93.2713 142.024 87.3833 140.061 82.946 136.136C78.594 132.125 76.418 126.408 76.418 118.984C76.418 117.107 76.6313 114.76 77.058 111.944L84.354 70.856H95.874L88.962 110.408C88.6207 112.2 88.45 114.077 88.45 116.04C88.45 121.245 89.858 125.213 92.674 127.944C95.5753 130.589 99.586 131.912 104.706 131.912C110.85 131.912 116.055 129.992 120.322 126.152C124.674 122.312 127.447 116.723 128.642 109.384V109.768L135.554 70.856H147.202ZM176.213 84.168C179.029 79.56 182.57 75.976 186.837 73.416C191.104 70.856 195.968 69.576 201.429 69.576L199.253 81.608H196.181C190.122 81.608 185.045 83.2293 180.949 86.472C176.938 89.7147 174.25 95.176 172.885 102.856L166.101 141H154.453L166.869 70.856H178.517L176.213 84.168ZM223.963 83.912C227.12 79.7307 231.216 76.3173 236.251 73.672C241.286 71.0267 246.747 69.704 252.635 69.704C260.998 69.704 267.696 72.2213 272.731 77.256C277.851 82.2907 280.411 89.1173 280.411 97.736C280.411 100.211 280.155 102.856 279.643 105.672C278.363 112.755 275.76 119.069 271.835 124.616C267.995 130.163 263.259 134.472 257.627 137.544C252.08 140.616 246.192 142.152 239.963 142.152C233.904 142.152 228.827 140.829 224.731 138.184C220.635 135.539 217.776 132.168 216.155 128.072L213.851 141H202.203L218.971 46.28H230.619L223.963 83.912ZM267.739 105.672C268.08 103.88 268.251 101.917 268.251 99.784C268.251 93.5547 266.416 88.6907 262.747 85.192C259.078 81.608 254.342 79.816 248.539 79.816C244.272 79.816 240.134 80.8827 236.123 83.016C232.112 85.064 228.656 88.0933 225.755 92.104C222.939 96.0293 221.062 100.595 220.123 105.8C219.782 107.592 219.611 109.555 219.611 111.688C219.611 117.917 221.446 122.867 225.115 126.536C228.87 130.12 233.606 131.912 239.323 131.912C243.675 131.912 247.814 130.888 251.739 128.84C255.75 126.707 259.163 123.677 261.979 119.752C264.88 115.741 266.8 111.048 267.739 105.672ZM319.551 142.152C313.663 142.152 308.458 140.957 303.935 138.568C299.498 136.093 296.042 132.68 293.567 128.328C291.092 123.891 289.855 118.771 289.855 112.968C289.855 105.032 291.69 97.7787 295.359 91.208C299.028 84.552 304.063 79.304 310.463 75.464C316.948 71.624 324.159 69.704 332.095 69.704C337.983 69.704 343.188 70.9413 347.711 73.416C352.319 75.8053 355.86 79.2187 358.335 83.656C360.895 88.008 362.175 93.128 362.175 99.016C362.175 106.952 360.298 114.205 356.543 120.776C352.788 127.347 347.668 132.552 341.183 136.392C334.698 140.232 327.487 142.152 319.551 142.152ZM320.959 132.296C326.506 132.296 331.498 130.803 335.935 127.816C340.372 124.744 343.828 120.733 346.303 115.784C348.863 110.749 350.143 105.373 350.143 99.656C350.143 93.1707 348.266 88.2213 344.511 84.808C340.756 81.3093 336.063 79.56 330.431 79.56C324.884 79.56 319.935 81.096 315.583 84.168C311.231 87.1547 307.86 91.1653 305.471 96.2C303.082 101.235 301.887 106.653 301.887 112.456C301.887 118.771 303.679 123.677 307.263 127.176C310.847 130.589 315.412 132.296 320.959 132.296ZM414.226 51.784C426.941 51.784 436.797 54.856 443.794 61C450.877 67.144 454.418 75.6773 454.418 86.6C454.418 90.0133 454.119 93.3413 453.522 96.584C451.901 105.715 448.573 113.651 443.538 120.392C438.589 127.048 432.231 132.168 424.466 135.752C416.786 139.251 408.082 141 398.354 141H370.578L386.45 51.784H414.226ZM400.018 132.04C411.453 132.04 420.754 128.925 427.922 122.696C435.09 116.381 439.655 107.677 441.618 96.584C442.13 93.512 442.386 90.6107 442.386 87.88C442.386 79.432 439.869 72.904 434.834 68.296C429.799 63.6027 422.375 61.256 412.562 61.256H396.434L383.89 132.04H400.018ZM491.926 142.152C486.038 142.152 480.833 140.957 476.31 138.568C471.873 136.093 468.417 132.68 465.942 128.328C463.467 123.891 462.23 118.771 462.23 112.968C462.23 105.032 464.065 97.7787 467.734 91.208C471.403 84.552 476.438 79.304 482.838 75.464C489.323 71.624 496.534 69.704 504.47 69.704C510.358 69.704 515.563 70.9413 520.086 73.416C524.694 75.8053 528.235 79.2187 530.71 83.656C533.27 88.008 534.55 93.128 534.55 99.016C534.55 106.952 532.673 114.205 528.918 120.776C525.163 127.347 520.043 132.552 513.558 136.392C507.073 140.232 499.862 142.152 491.926 142.152ZM493.334 132.296C498.881 132.296 503.873 130.803 508.31 127.816C512.747 124.744 516.203 120.733 518.678 115.784C521.238 110.749 522.518 105.373 522.518 99.656C522.518 93.1707 520.641 88.2213 516.886 84.808C513.131 81.3093 508.438 79.56 502.806 79.56C497.259 79.56 492.31 81.096 487.958 84.168C483.606 87.1547 480.235 91.1653 477.846 96.2C475.457 101.235 474.262 106.653 474.262 112.456C474.262 118.771 476.054 123.677 479.638 127.176C483.222 130.589 487.787 132.296 493.334 132.296ZM544.745 105.8C546.025 98.5467 548.585 92.232 552.425 86.856C556.35 81.3947 561.172 77.1707 566.889 74.184C572.606 71.1973 578.793 69.704 585.449 69.704C594.068 69.704 600.766 71.7947 605.545 75.976C610.409 80.1573 613.097 85.96 613.609 93.384H601.065C600.638 89.1173 598.889 85.7467 595.817 83.272C592.83 80.7973 588.777 79.56 583.657 79.56C577.001 79.56 571.198 81.864 566.249 86.472C561.385 90.9947 558.228 97.4373 556.777 105.8C556.35 108.616 556.137 110.963 556.137 112.84C556.137 119.069 557.801 123.891 561.129 127.304C564.457 130.632 568.894 132.296 574.441 132.296C579.561 132.296 583.998 131.101 587.753 128.712C591.593 126.323 594.537 122.909 596.585 118.472H609.129C606.057 125.64 601.321 131.4 594.921 135.752C588.521 140.019 581.097 142.152 572.649 142.152C563.86 142.152 556.862 139.635 551.657 134.6C546.537 129.565 543.977 122.696 543.977 113.992C543.977 111.347 544.233 108.616 544.745 105.8Z"/>
</mask>
<path d="M73.984 51.784L72.32 60.872H48L33.92 141H22.272L36.352 60.872H12.032L13.696 51.784H73.984ZM147.202 70.856L134.786 141H123.138L124.93 130.76C122.114 134.344 118.53 137.117 114.178 139.08C109.826 141.043 105.303 142.024 100.61 142.024C93.2713 142.024 87.3833 140.061 82.946 136.136C78.594 132.125 76.418 126.408 76.418 118.984C76.418 117.107 76.6313 114.76 77.058 111.944L84.354 70.856H95.874L88.962 110.408C88.6207 112.2 88.45 114.077 88.45 116.04C88.45 121.245 89.858 125.213 92.674 127.944C95.5753 130.589 99.586 131.912 104.706 131.912C110.85 131.912 116.055 129.992 120.322 126.152C124.674 122.312 127.447 116.723 128.642 109.384V109.768L135.554 70.856H147.202ZM176.213 84.168C179.029 79.56 182.57 75.976 186.837 73.416C191.104 70.856 195.968 69.576 201.429 69.576L199.253 81.608H196.181C190.122 81.608 185.045 83.2293 180.949 86.472C176.938 89.7147 174.25 95.176 172.885 102.856L166.101 141H154.453L166.869 70.856H178.517L176.213 84.168ZM223.963 83.912C227.12 79.7307 231.216 76.3173 236.251 73.672C241.286 71.0267 246.747 69.704 252.635 69.704C260.998 69.704 267.696 72.2213 272.731 77.256C277.851 82.2907 280.411 89.1173 280.411 97.736C280.411 100.211 280.155 102.856 279.643 105.672C278.363 112.755 275.76 119.069 271.835 124.616C267.995 130.163 263.259 134.472 257.627 137.544C252.08 140.616 246.192 142.152 239.963 142.152C233.904 142.152 228.827 140.829 224.731 138.184C220.635 135.539 217.776 132.168 216.155 128.072L213.851 141H202.203L218.971 46.28H230.619L223.963 83.912ZM267.739 105.672C268.08 103.88 268.251 101.917 268.251 99.784C268.251 93.5547 266.416 88.6907 262.747 85.192C259.078 81.608 254.342 79.816 248.539 79.816C244.272 79.816 240.134 80.8827 236.123 83.016C232.112 85.064 228.656 88.0933 225.755 92.104C222.939 96.0293 221.062 100.595 220.123 105.8C219.782 107.592 219.611 109.555 219.611 111.688C219.611 117.917 221.446 122.867 225.115 126.536C228.87 130.12 233.606 131.912 239.323 131.912C243.675 131.912 247.814 130.888 251.739 128.84C255.75 126.707 259.163 123.677 261.979 119.752C264.88 115.741 266.8 111.048 267.739 105.672ZM319.551 142.152C313.663 142.152 308.458 140.957 303.935 138.568C299.498 136.093 296.042 132.68 293.567 128.328C291.092 123.891 289.855 118.771 289.855 112.968C289.855 105.032 291.69 97.7787 295.359 91.208C299.028 84.552 304.063 79.304 310.463 75.464C316.948 71.624 324.159 69.704 332.095 69.704C337.983 69.704 343.188 70.9413 347.711 73.416C352.319 75.8053 355.86 79.2187 358.335 83.656C360.895 88.008 362.175 93.128 362.175 99.016C362.175 106.952 360.298 114.205 356.543 120.776C352.788 127.347 347.668 132.552 341.183 136.392C334.698 140.232 327.487 142.152 319.551 142.152ZM320.959 132.296C326.506 132.296 331.498 130.803 335.935 127.816C340.372 124.744 343.828 120.733 346.303 115.784C348.863 110.749 350.143 105.373 350.143 99.656C350.143 93.1707 348.266 88.2213 344.511 84.808C340.756 81.3093 336.063 79.56 330.431 79.56C324.884 79.56 319.935 81.096 315.583 84.168C311.231 87.1547 307.86 91.1653 305.471 96.2C303.082 101.235 301.887 106.653 301.887 112.456C301.887 118.771 303.679 123.677 307.263 127.176C310.847 130.589 315.412 132.296 320.959 132.296ZM414.226 51.784C426.941 51.784 436.797 54.856 443.794 61C450.877 67.144 454.418 75.6773 454.418 86.6C454.418 90.0133 454.119 93.3413 453.522 96.584C451.901 105.715 448.573 113.651 443.538 120.392C438.589 127.048 432.231 132.168 424.466 135.752C416.786 139.251 408.082 141 398.354 141H370.578L386.45 51.784H414.226ZM400.018 132.04C411.453 132.04 420.754 128.925 427.922 122.696C435.09 116.381 439.655 107.677 441.618 96.584C442.13 93.512 442.386 90.6107 442.386 87.88C442.386 79.432 439.869 72.904 434.834 68.296C429.799 63.6027 422.375 61.256 412.562 61.256H396.434L383.89 132.04H400.018ZM491.926 142.152C486.038 142.152 480.833 140.957 476.31 138.568C471.873 136.093 468.417 132.68 465.942 128.328C463.467 123.891 462.23 118.771 462.23 112.968C462.23 105.032 464.065 97.7787 467.734 91.208C471.403 84.552 476.438 79.304 482.838 75.464C489.323 71.624 496.534 69.704 504.47 69.704C510.358 69.704 515.563 70.9413 520.086 73.416C524.694 75.8053 528.235 79.2187 530.71 83.656C533.27 88.008 534.55 93.128 534.55 99.016C534.55 106.952 532.673 114.205 528.918 120.776C525.163 127.347 520.043 132.552 513.558 136.392C507.073 140.232 499.862 142.152 491.926 142.152ZM493.334 132.296C498.881 132.296 503.873 130.803 508.31 127.816C512.747 124.744 516.203 120.733 518.678 115.784C521.238 110.749 522.518 105.373 522.518 99.656C522.518 93.1707 520.641 88.2213 516.886 84.808C513.131 81.3093 508.438 79.56 502.806 79.56C497.259 79.56 492.31 81.096 487.958 84.168C483.606 87.1547 480.235 91.1653 477.846 96.2C475.457 101.235 474.262 106.653 474.262 112.456C474.262 118.771 476.054 123.677 479.638 127.176C483.222 130.589 487.787 132.296 493.334 132.296ZM544.745 105.8C546.025 98.5467 548.585 92.232 552.425 86.856C556.35 81.3947 561.172 77.1707 566.889 74.184C572.606 71.1973 578.793 69.704 585.449 69.704C594.068 69.704 600.766 71.7947 605.545 75.976C610.409 80.1573 613.097 85.96 613.609 93.384H601.065C600.638 89.1173 598.889 85.7467 595.817 83.272C592.83 80.7973 588.777 79.56 583.657 79.56C577.001 79.56 571.198 81.864 566.249 86.472C561.385 90.9947 558.228 97.4373 556.777 105.8C556.35 108.616 556.137 110.963 556.137 112.84C556.137 119.069 557.801 123.891 561.129 127.304C564.457 130.632 568.894 132.296 574.441 132.296C579.561 132.296 583.998 131.101 587.753 128.712C591.593 126.323 594.537 122.909 596.585 118.472H609.129C606.057 125.64 601.321 131.4 594.921 135.752C588.521 140.019 581.097 142.152 572.649 142.152C563.86 142.152 556.862 139.635 551.657 134.6C546.537 129.565 543.977 122.696 543.977 113.992C543.977 111.347 544.233 108.616 544.745 105.8Z" fill="white"/>
<path d="M73.984 51.784L77.9186 52.5044L78.7829 47.784H73.984V51.784ZM72.32 60.872V64.872H75.6541L76.2546 61.5924L72.32 60.872ZM48 60.872V56.872H44.6416L44.0604 60.1797L48 60.872ZM33.92 141V145H37.2784L37.8596 141.692L33.92 141ZM22.272 141L18.3324 140.308L17.5078 145H22.272V141ZM36.352 60.872L40.2916 61.5643L41.1162 56.872H36.352V60.872ZM12.032 60.872L8.09741 60.1516L7.23311 64.872H12.032V60.872ZM13.696 51.784V47.784H10.3619L9.76141 51.0636L13.696 51.784ZM73.984 51.784L70.0494 51.0636L68.3854 60.1516L72.32 60.872L76.2546 61.5924L77.9186 52.5044L73.984 51.784ZM72.32 60.872V56.872H48V60.872V64.872H72.32V60.872ZM48 60.872L44.0604 60.1797L29.9804 140.308L33.92 141L37.8596 141.692L51.9396 61.5643L48 60.872ZM33.92 141V137H22.272V141V145H33.92V141ZM22.272 141L26.2116 141.692L40.2916 61.5643L36.352 60.872L32.4124 60.1797L18.3324 140.308L22.272 141ZM36.352 60.872V56.872H12.032V60.872V64.872H36.352V60.872ZM12.032 60.872L15.9666 61.5924L17.6306 52.5044L13.696 51.784L9.76141 51.0636L8.09741 60.1516L12.032 60.872ZM13.696 51.784V55.784H73.984V51.784V47.784H13.696V51.784ZM147.202 70.856L151.141 71.5532L151.972 66.856H147.202V70.856ZM134.786 141V145H138.14L138.725 141.697L134.786 141ZM123.138 141L119.198 140.31L118.377 145H123.138V141ZM124.93 130.76L128.87 131.45L121.785 128.289L124.93 130.76ZM114.178 139.08L115.822 142.726L115.822 142.726L114.178 139.08ZM82.946 136.136L80.2353 139.077L80.2652 139.105L80.2957 139.132L82.946 136.136ZM77.058 111.944L73.1196 111.245L73.1107 111.295L73.1031 111.345L77.058 111.944ZM84.354 70.856V66.856H81.0017L80.4156 70.1567L84.354 70.856ZM95.874 70.856L99.8143 71.5446L100.634 66.856H95.874V70.856ZM88.962 110.408L92.8914 111.156L92.897 111.127L92.9023 111.097L88.962 110.408ZM92.674 127.944L89.8894 130.816L89.9336 130.858L89.979 130.9L92.674 127.944ZM120.322 126.152L117.676 123.153L117.661 123.166L117.646 123.179L120.322 126.152ZM128.642 109.384H132.642L124.694 108.741L128.642 109.384ZM128.642 109.768H124.642L132.58 110.468L128.642 109.768ZM135.554 70.856V66.856H132.202L131.616 70.1564L135.554 70.856ZM147.202 70.856L143.263 70.1588L130.847 140.303L134.786 141L138.725 141.697L151.141 71.5532L147.202 70.856ZM134.786 141V137H123.138V141V145H134.786V141ZM123.138 141L127.078 141.69L128.87 131.45L124.93 130.76L120.99 130.07L119.198 140.31L123.138 141ZM124.93 130.76L121.785 128.289C119.386 131.342 116.327 133.723 112.534 135.434L114.178 139.08L115.822 142.726C120.733 140.512 124.842 137.346 128.075 133.231L124.93 130.76ZM114.178 139.08L112.534 135.434C108.689 137.167 104.726 138.024 100.61 138.024V142.024V146.024C105.88 146.024 110.963 144.918 115.822 142.726L114.178 139.08ZM100.61 142.024V138.024C94.0052 138.024 89.1391 136.274 85.5963 133.14L82.946 136.136L80.2957 139.132C85.6276 143.849 92.5374 146.024 100.61 146.024V142.024ZM82.946 136.136L85.6567 133.195C82.3261 130.125 80.418 125.594 80.418 118.984H76.418H72.418C72.418 127.222 74.8619 134.125 80.2353 139.077L82.946 136.136ZM76.418 118.984H80.418C80.418 117.382 80.6026 115.251 81.0129 112.543L77.058 111.944L73.1031 111.345C72.6601 114.269 72.418 116.832 72.418 118.984H76.418ZM77.058 111.944L80.9964 112.643L88.2924 71.5553L84.354 70.856L80.4156 70.1567L73.1196 111.245L77.058 111.944ZM84.354 70.856V74.856H95.874V70.856V66.856H84.354V70.856ZM95.874 70.856L91.9337 70.1674L85.0217 109.719L88.962 110.408L92.9023 111.097L99.8143 71.5446L95.874 70.856ZM88.962 110.408L85.0326 109.66C84.6409 111.716 84.45 113.845 84.45 116.04H88.45H92.45C92.45 114.31 92.6004 112.684 92.8914 111.156L88.962 110.408ZM88.45 116.04H84.45C84.45 121.96 86.067 127.109 89.8894 130.816L92.674 127.944L95.4586 125.072C93.649 123.318 92.45 120.531 92.45 116.04H88.45ZM92.674 127.944L89.979 130.9C93.8187 134.401 98.9002 135.912 104.706 135.912V131.912V127.912C100.272 127.912 97.332 126.778 95.369 124.988L92.674 127.944ZM104.706 131.912V135.912C111.762 135.912 117.942 133.675 122.998 129.125L120.322 126.152L117.646 123.179C114.168 126.309 109.938 127.912 104.706 127.912V131.912ZM120.322 126.152L122.968 129.151C128.189 124.545 131.289 118.017 132.59 110.027L128.642 109.384L124.694 108.741C123.605 115.429 121.159 120.079 117.676 123.153L120.322 126.152ZM128.642 109.384H124.642V109.768H128.642H132.642V109.384H128.642ZM128.642 109.768L132.58 110.468L139.492 71.5556L135.554 70.856L131.616 70.1564L124.704 109.068L128.642 109.768ZM135.554 70.856V74.856H147.202V70.856V66.856H135.554V70.856ZM176.213 84.168L172.272 83.4858L179.626 86.2538L176.213 84.168ZM186.837 73.416L188.895 76.846L188.895 76.846L186.837 73.416ZM201.429 69.576L205.365 70.2879L206.217 65.576H201.429V69.576ZM199.253 81.608V85.608H202.594L203.189 82.3199L199.253 81.608ZM180.949 86.472L178.466 83.3358L178.45 83.3486L178.434 83.3615L180.949 86.472ZM172.885 102.856L176.823 103.556L176.823 103.556L172.885 102.856ZM166.101 141V145H169.452L170.039 141.7L166.101 141ZM154.453 141L150.514 140.303L149.683 145H154.453V141ZM166.869 70.856V66.856H163.515L162.93 70.1588L166.869 70.856ZM178.517 70.856L182.458 71.5382L183.269 66.856H178.517V70.856ZM176.213 84.168L179.626 86.2538C182.135 82.1486 185.228 79.046 188.895 76.846L186.837 73.416L184.779 69.986C179.912 72.906 175.923 76.9714 172.8 82.0822L176.213 84.168ZM186.837 73.416L188.895 76.846C192.48 74.6948 196.62 73.576 201.429 73.576V69.576V65.576C195.316 65.576 189.727 67.0172 184.779 69.986L186.837 73.416ZM201.429 69.576L197.493 68.8641L195.317 80.8961L199.253 81.608L203.189 82.3199L205.365 70.2879L201.429 69.576ZM199.253 81.608V77.608H196.181V81.608V85.608H199.253V81.608ZM196.181 81.608V77.608C189.372 77.608 183.379 79.4469 178.466 83.3358L180.949 86.472L183.432 89.6082C186.711 87.0118 190.873 85.608 196.181 85.608V81.608ZM180.949 86.472L178.434 83.3615C173.372 87.4542 170.397 93.9963 168.947 102.156L172.885 102.856L176.823 103.556C178.103 96.3557 180.505 91.9752 183.464 89.5825L180.949 86.472ZM172.885 102.856L168.947 102.156L162.163 140.3L166.101 141L170.039 141.7L176.823 103.556L172.885 102.856ZM166.101 141V137H154.453V141V145H166.101V141ZM154.453 141L158.392 141.697L170.808 71.5532L166.869 70.856L162.93 70.1588L150.514 140.303L154.453 141ZM166.869 70.856V74.856H178.517V70.856V66.856H166.869V70.856ZM178.517 70.856L174.576 70.1738L172.272 83.4858L176.213 84.168L180.154 84.8502L182.458 71.5382L178.517 70.856ZM223.963 83.912L220.024 83.2153L227.155 86.3224L223.963 83.912ZM236.251 73.672L238.112 77.213L238.112 77.213L236.251 73.672ZM272.731 77.256L269.903 80.0844L269.914 80.0963L269.926 80.1081L272.731 77.256ZM279.643 105.672L275.708 104.956L275.707 104.961L279.643 105.672ZM271.835 124.616L268.57 122.305L268.558 122.322L268.546 122.339L271.835 124.616ZM257.627 137.544L255.712 134.032L255.7 134.039L255.689 134.045L257.627 137.544ZM224.731 138.184L226.901 134.824L224.731 138.184ZM216.155 128.072L219.874 126.6L214.689 113.5L212.217 127.37L216.155 128.072ZM213.851 141V145H217.201L217.789 141.702L213.851 141ZM202.203 141L198.264 140.303L197.433 145H202.203V141ZM218.971 46.28V42.28H215.617L215.032 45.5827L218.971 46.28ZM230.619 46.28L234.558 46.9767L235.389 42.28H230.619V46.28ZM267.739 105.672L263.81 104.924L263.804 104.954L263.799 104.984L267.739 105.672ZM262.747 85.192L259.952 88.0535L259.969 88.0703L259.987 88.0869L262.747 85.192ZM236.123 83.016L237.942 86.5784L237.972 86.5632L238.001 86.5475L236.123 83.016ZM225.755 92.104L222.514 89.7595L222.509 89.7659L222.505 89.7724L225.755 92.104ZM220.123 105.8L224.052 106.548L224.056 106.529L224.06 106.51L220.123 105.8ZM225.115 126.536L222.287 129.364L222.319 129.397L222.353 129.429L225.115 126.536ZM251.739 128.84L253.589 132.386L253.603 132.379L253.617 132.371L251.739 128.84ZM261.979 119.752L258.738 117.408L258.733 117.414L258.729 117.42L261.979 119.752ZM223.963 83.912L227.155 86.3224C229.928 82.6506 233.553 79.6079 238.112 77.213L236.251 73.672L234.39 70.131C228.879 73.0267 224.313 76.8107 220.771 81.5016L223.963 83.912ZM236.251 73.672L238.112 77.213C242.552 74.88 247.372 73.704 252.635 73.704V69.704V65.704C246.122 65.704 240.02 67.1734 234.39 70.131L236.251 73.672ZM252.635 69.704V73.704C260.136 73.704 265.748 75.9301 269.903 80.0844L272.731 77.256L275.559 74.4276C269.644 68.5126 261.859 65.704 252.635 65.704V69.704ZM272.731 77.256L269.926 80.1081C274.132 84.2432 276.411 89.9594 276.411 97.736H280.411H284.411C284.411 88.2753 281.57 80.3381 275.536 74.4039L272.731 77.256ZM280.411 97.736H276.411C276.411 99.9369 276.183 102.341 275.708 104.956L279.643 105.672L283.578 106.388C284.127 103.371 284.411 100.484 284.411 97.736H280.411ZM279.643 105.672L275.707 104.961C274.525 111.502 272.137 117.264 268.57 122.305L271.835 124.616L275.1 126.927C279.383 120.874 282.201 114.007 283.579 106.383L279.643 105.672ZM271.835 124.616L268.546 122.339C265.043 127.4 260.767 131.275 255.712 134.032L257.627 137.544L259.542 141.056C265.751 137.669 270.947 132.925 275.124 126.893L271.835 124.616ZM257.627 137.544L255.689 134.045C250.724 136.794 245.502 138.152 239.963 138.152V142.152V146.152C246.883 146.152 253.436 144.438 259.565 141.043L257.627 137.544ZM239.963 142.152V138.152C234.487 138.152 230.21 136.961 226.901 134.824L224.731 138.184L222.561 141.544C227.444 144.698 233.321 146.152 239.963 146.152V142.152ZM224.731 138.184L226.901 134.824C223.427 132.58 221.156 129.838 219.874 126.6L216.155 128.072L212.436 129.544C214.397 134.498 217.843 138.497 222.561 141.544L224.731 138.184ZM216.155 128.072L212.217 127.37L209.913 140.298L213.851 141L217.789 141.702L220.093 128.774L216.155 128.072ZM213.851 141V137H202.203V141V145H213.851V141ZM202.203 141L206.142 141.697L222.91 46.9773L218.971 46.28L215.032 45.5827L198.264 140.303L202.203 141ZM218.971 46.28V50.28H230.619V46.28V42.28H218.971V46.28ZM230.619 46.28L226.68 45.5833L220.024 83.2153L223.963 83.912L227.902 84.6087L234.558 46.9767L230.619 46.28ZM267.739 105.672L271.668 106.42C272.064 104.344 272.251 102.127 272.251 99.784H268.251H264.251C264.251 101.707 264.097 103.416 263.81 104.924L267.739 105.672ZM268.251 99.784H272.251C272.251 92.7285 270.143 86.7173 265.507 82.297L262.747 85.192L259.987 88.0869C262.689 90.664 264.251 94.3808 264.251 99.784H268.251ZM262.747 85.192L265.542 82.3305C261.025 77.9188 255.237 75.816 248.539 75.816V79.816V83.816C253.446 83.816 257.13 85.2972 259.952 88.0535L262.747 85.192ZM248.539 79.816V75.816C243.575 75.816 238.795 77.064 234.245 79.4845L236.123 83.016L238.001 86.5475C241.472 84.7013 244.97 83.816 248.539 83.816V79.816ZM236.123 83.016L234.304 79.4536C229.675 81.8171 225.749 85.2879 222.514 89.7595L225.755 92.104L228.996 94.4485C231.564 90.8988 234.549 88.3109 237.942 86.5784L236.123 83.016ZM225.755 92.104L222.505 89.7724C219.311 94.225 217.22 99.3562 216.186 105.09L220.123 105.8L224.06 106.51C224.903 101.833 226.567 97.8337 229.005 94.4356L225.755 92.104ZM220.123 105.8L216.194 105.052C215.798 107.128 215.611 109.345 215.611 111.688H219.611H223.611C223.611 109.765 223.765 108.056 224.052 106.548L220.123 105.8ZM219.611 111.688H215.611C215.611 118.751 217.72 124.798 222.287 129.364L225.115 126.536L227.943 123.708C225.171 120.935 223.611 117.084 223.611 111.688H219.611ZM225.115 126.536L222.353 129.429C226.93 133.799 232.691 135.912 239.323 135.912V131.912V127.912C234.521 127.912 230.809 126.441 227.877 123.643L225.115 126.536ZM239.323 131.912V135.912C244.331 135.912 249.103 134.727 253.589 132.386L251.739 128.84L249.889 125.294C246.524 127.049 243.019 127.912 239.323 127.912V131.912ZM251.739 128.84L253.617 132.371C258.206 129.931 262.078 126.477 265.229 122.084L261.979 119.752L258.729 117.42C256.248 120.878 253.294 123.482 249.861 125.309L251.739 128.84ZM261.979 119.752L265.22 122.096C268.512 117.545 270.647 112.272 271.679 106.36L267.739 105.672L263.799 104.984C262.954 109.824 261.248 113.937 258.738 117.408L261.979 119.752ZM303.935 138.568L301.987 142.061L302.026 142.084L302.067 142.105L303.935 138.568ZM293.567 128.328L290.074 130.276L290.082 130.291L290.09 130.305L293.567 128.328ZM295.359 91.208L298.851 93.1583L298.857 93.1487L298.862 93.1391L295.359 91.208ZM310.463 75.464L308.425 72.0221L308.415 72.028L308.405 72.034L310.463 75.464ZM347.711 73.416L345.791 76.925L345.83 76.9465L345.87 76.967L347.711 73.416ZM358.335 83.656L354.842 85.6043L354.864 85.6444L354.887 85.6841L358.335 83.656ZM356.543 120.776L360.016 122.761L360.016 122.761L356.543 120.776ZM341.183 136.392L339.145 132.95L339.145 132.95L341.183 136.392ZM335.935 127.816L338.169 131.134L338.19 131.12L338.212 131.105L335.935 127.816ZM346.303 115.784L342.737 113.971L342.731 113.983L342.725 113.995L346.303 115.784ZM344.511 84.808L341.784 87.7344L341.802 87.7512L341.82 87.7678L344.511 84.808ZM315.583 84.168L317.846 87.466L317.868 87.4511L317.89 87.4359L315.583 84.168ZM305.471 96.2L301.857 94.485L301.857 94.485L305.471 96.2ZM307.263 127.176L304.469 130.038L304.487 130.056L304.504 130.073L307.263 127.176ZM319.551 142.152V138.152C314.215 138.152 309.669 137.073 305.803 135.031L303.935 138.568L302.067 142.105C307.247 144.841 313.111 146.152 319.551 146.152V142.152ZM303.935 138.568L305.883 135.075C302.075 132.95 299.152 130.057 297.044 126.351L293.567 128.328L290.09 130.305C292.932 135.303 296.921 139.236 301.987 142.061L303.935 138.568ZM293.567 128.328L297.06 126.38C294.963 122.618 293.855 118.187 293.855 112.968H289.855H285.855C285.855 119.354 287.222 125.163 290.074 130.276L293.567 128.328ZM289.855 112.968H293.855C293.855 105.676 295.533 99.1 298.851 93.1583L295.359 91.208L291.867 89.2577C287.846 96.4573 285.855 104.388 285.855 112.968H289.855ZM295.359 91.208L298.862 93.1391C302.197 87.0896 306.738 82.3637 312.521 78.894L310.463 75.464L308.405 72.034C301.388 76.2443 295.86 82.0144 291.856 89.2769L295.359 91.208ZM310.463 75.464L312.501 78.9059C318.336 75.4509 324.837 73.704 332.095 73.704V69.704V65.704C323.481 65.704 315.561 67.7971 308.425 72.0221L310.463 75.464ZM332.095 69.704V73.704C337.408 73.704 341.936 74.8158 345.791 76.925L347.711 73.416L349.631 69.907C344.44 67.0668 338.558 65.704 332.095 65.704V69.704ZM347.711 73.416L345.87 76.967C349.798 79.0038 352.757 81.8671 354.842 85.6043L358.335 83.656L361.828 81.7077C358.963 76.5703 354.84 72.6069 349.552 69.865L347.711 73.416ZM358.335 83.656L354.887 85.6841C357.029 89.3257 358.175 93.7213 358.175 99.016H362.175H366.175C366.175 92.5347 364.761 86.6903 361.783 81.6279L358.335 83.656ZM362.175 99.016H358.175C358.175 106.291 356.462 112.855 353.07 118.791L356.543 120.776L360.016 122.761C364.133 115.556 366.175 107.613 366.175 99.016H362.175ZM356.543 120.776L353.07 118.791C349.658 124.763 345.031 129.465 339.145 132.95L341.183 136.392L343.221 139.834C350.305 135.639 355.919 129.931 360.016 122.761L356.543 120.776ZM341.183 136.392L339.145 132.95C333.31 136.405 326.809 138.152 319.551 138.152V142.152V146.152C328.165 146.152 336.085 144.059 343.221 139.834L341.183 136.392ZM320.959 132.296V136.296C327.27 136.296 333.046 134.582 338.169 131.134L335.935 127.816L333.701 124.498C329.95 127.023 325.741 128.296 320.959 128.296V132.296ZM335.935 127.816L338.212 131.105C343.216 127.64 347.113 123.108 349.881 117.573L346.303 115.784L342.725 113.995C340.543 118.359 337.528 121.848 333.658 124.527L335.935 127.816ZM346.303 115.784L349.869 117.597C352.718 111.994 354.143 105.995 354.143 99.656H350.143H346.143C346.143 104.751 345.008 109.505 342.737 113.971L346.303 115.784ZM350.143 99.656H354.143C354.143 92.3773 352.009 86.2183 347.202 81.8482L344.511 84.808L341.82 87.7678C344.523 90.2244 346.143 93.964 346.143 99.656H350.143ZM344.511 84.808L347.238 81.8816C342.668 77.6232 336.968 75.56 330.431 75.56V79.56V83.56C335.158 83.56 338.845 84.9955 341.784 87.7344L344.511 84.808ZM330.431 79.56V75.56C324.095 75.56 318.332 77.3313 313.276 80.9001L315.583 84.168L317.89 87.4359C321.538 84.8607 325.674 83.56 330.431 83.56V79.56ZM315.583 84.168L313.32 80.8699C308.353 84.2785 304.532 88.8498 301.857 94.485L305.471 96.2L309.085 97.915C311.189 93.4809 314.109 90.0308 317.846 87.466L315.583 84.168ZM305.471 96.2L301.857 94.485C299.203 100.078 297.887 106.085 297.887 112.456H301.887H305.887C305.887 107.221 306.96 102.391 309.085 97.915L305.471 96.2ZM301.887 112.456H297.887C297.887 119.551 299.924 125.602 304.469 130.038L307.263 127.176L310.057 124.314C307.434 121.753 305.887 117.99 305.887 112.456H301.887ZM307.263 127.176L304.504 130.073C308.924 134.282 314.52 136.296 320.959 136.296V132.296V128.296C316.305 128.296 312.77 126.897 310.022 124.279L307.263 127.176ZM443.794 61L441.155 64.0058L441.164 64.0137L441.173 64.0216L443.794 61ZM453.522 96.584L449.588 95.8593L449.586 95.872L449.584 95.8847L453.522 96.584ZM443.538 120.392L440.333 117.998L440.328 118.005L443.538 120.392ZM424.466 135.752L426.124 139.392L426.133 139.388L426.142 139.384L424.466 135.752ZM370.578 141L366.64 140.299L365.804 145H370.578V141ZM386.45 51.784V47.784H383.099L382.512 51.0834L386.45 51.784ZM427.922 122.696L430.546 125.715L430.556 125.706L430.566 125.697L427.922 122.696ZM441.618 96.584L445.557 97.2809L445.56 97.2612L445.564 97.2416L441.618 96.584ZM434.834 68.296L432.106 71.2219L432.12 71.2343L432.133 71.2467L434.834 68.296ZM396.434 61.256V57.256H393.081L392.495 60.558L396.434 61.256ZM383.89 132.04L379.951 131.342L379.119 136.04H383.89V132.04ZM414.226 51.784V55.784C426.326 55.784 435.117 58.7042 441.155 64.0058L443.794 61L446.433 57.9942C438.476 51.0078 427.555 47.784 414.226 47.784V51.784ZM443.794 61L441.173 64.0216C447.232 69.2774 450.418 76.6253 450.418 86.6H454.418H458.418C458.418 74.7294 454.522 65.0106 446.415 57.9784L443.794 61ZM454.418 86.6H450.418C450.418 89.7788 450.14 92.864 449.588 95.8593L453.522 96.584L457.456 97.3087C458.099 93.8187 458.418 90.2479 458.418 86.6H454.418ZM453.522 96.584L449.584 95.8847C448.06 104.465 444.958 111.806 440.333 117.998L443.538 120.392L446.743 122.786C452.188 115.495 455.741 106.964 457.46 97.2833L453.522 96.584ZM443.538 120.392L440.328 118.005C435.791 124.107 429.968 128.807 422.79 132.12L424.466 135.752L426.142 139.384C434.495 135.529 441.387 129.989 446.748 122.779L443.538 120.392ZM424.466 135.752L422.808 132.112C415.722 135.34 407.597 137 398.354 137V141V145C408.567 145 417.85 143.162 426.124 139.392L424.466 135.752ZM398.354 141V137H370.578V141V145H398.354V141ZM370.578 141L374.516 141.701L390.388 52.4846L386.45 51.784L382.512 51.0834L366.64 140.299L370.578 141ZM386.45 51.784V55.784H414.226V51.784V47.784H386.45V51.784ZM400.018 132.04V136.04C412.211 136.04 422.508 132.7 430.546 125.715L427.922 122.696L425.298 119.677C419 125.15 410.695 128.04 400.018 128.04V132.04ZM427.922 122.696L430.566 125.697C438.531 118.68 443.466 109.1 445.557 97.2809L441.618 96.584L437.679 95.8871C435.845 106.255 431.649 114.082 425.278 119.695L427.922 122.696ZM441.618 96.584L445.564 97.2416C446.107 93.9819 446.386 90.8591 446.386 87.88H442.386H438.386C438.386 90.3622 438.153 93.0421 437.672 95.9264L441.618 96.584ZM442.386 87.88H446.386C446.386 78.5966 443.587 70.8852 437.535 65.3453L434.834 68.296L432.133 71.2467C436.15 74.9228 438.386 80.2674 438.386 87.88H442.386ZM434.834 68.296L437.562 65.3701C431.523 59.7406 422.958 57.256 412.562 57.256V61.256V65.256C421.793 65.256 428.076 67.4647 432.106 71.2219L434.834 68.296ZM412.562 61.256V57.256H396.434V61.256V65.256H412.562V61.256ZM396.434 61.256L392.495 60.558L379.951 131.342L383.89 132.04L387.829 132.738L400.373 61.954L396.434 61.256ZM383.89 132.04V136.04H400.018V132.04V128.04H383.89V132.04ZM476.31 138.568L474.362 142.061L474.401 142.084L474.442 142.105L476.31 138.568ZM465.942 128.328L462.449 130.276L462.457 130.291L462.465 130.305L465.942 128.328ZM467.734 91.208L471.226 93.1583L471.232 93.1487L471.237 93.1391L467.734 91.208ZM482.838 75.464L480.8 72.0221L480.79 72.028L480.78 72.034L482.838 75.464ZM520.086 73.416L518.166 76.925L518.205 76.9465L518.245 76.967L520.086 73.416ZM530.71 83.656L527.217 85.6043L527.239 85.6444L527.262 85.6841L530.71 83.656ZM528.918 120.776L532.391 122.761L532.391 122.761L528.918 120.776ZM513.558 136.392L511.52 132.95L511.52 132.95L513.558 136.392ZM508.31 127.816L510.544 131.134L510.565 131.12L510.587 131.105L508.31 127.816ZM518.678 115.784L515.112 113.971L515.106 113.983L515.1 113.995L518.678 115.784ZM516.886 84.808L514.159 87.7344L514.177 87.7512L514.195 87.7678L516.886 84.808ZM487.958 84.168L490.221 87.466L490.243 87.4511L490.265 87.4359L487.958 84.168ZM477.846 96.2L474.232 94.485L474.232 94.485L477.846 96.2ZM479.638 127.176L476.844 130.038L476.862 130.056L476.879 130.073L479.638 127.176ZM491.926 142.152V138.152C486.59 138.152 482.044 137.073 478.178 135.031L476.31 138.568L474.442 142.105C479.622 144.841 485.486 146.152 491.926 146.152V142.152ZM476.31 138.568L478.258 135.075C474.45 132.95 471.527 130.057 469.419 126.351L465.942 128.328L462.465 130.305C465.307 135.303 469.296 139.236 474.362 142.061L476.31 138.568ZM465.942 128.328L469.435 126.38C467.338 122.618 466.23 118.187 466.23 112.968H462.23H458.23C458.23 119.354 459.597 125.163 462.449 130.276L465.942 128.328ZM462.23 112.968H466.23C466.23 105.676 467.908 99.1 471.226 93.1583L467.734 91.208L464.242 89.2577C460.221 96.4573 458.23 104.388 458.23 112.968H462.23ZM467.734 91.208L471.237 93.1391C474.572 87.0896 479.113 82.3637 484.896 78.894L482.838 75.464L480.78 72.034C473.763 76.2443 468.235 82.0144 464.231 89.2769L467.734 91.208ZM482.838 75.464L484.876 78.9059C490.711 75.4509 497.212 73.704 504.47 73.704V69.704V65.704C495.856 65.704 487.936 67.7971 480.8 72.0221L482.838 75.464ZM504.47 69.704V73.704C509.783 73.704 514.311 74.8158 518.166 76.925L520.086 73.416L522.006 69.907C516.815 67.0668 510.933 65.704 504.47 65.704V69.704ZM520.086 73.416L518.245 76.967C522.173 79.0038 525.132 81.8671 527.217 85.6043L530.71 83.656L534.203 81.7077C531.338 76.5703 527.215 72.6069 521.927 69.865L520.086 73.416ZM530.71 83.656L527.262 85.6841C529.404 89.3257 530.55 93.7213 530.55 99.016H534.55H538.55C538.55 92.5347 537.136 86.6903 534.158 81.6279L530.71 83.656ZM534.55 99.016H530.55C530.55 106.291 528.837 112.855 525.445 118.791L528.918 120.776L532.391 122.761C536.508 115.556 538.55 107.613 538.55 99.016H534.55ZM528.918 120.776L525.445 118.791C522.033 124.763 517.406 129.465 511.52 132.95L513.558 136.392L515.596 139.834C522.68 135.639 528.294 129.931 532.391 122.761L528.918 120.776ZM513.558 136.392L511.52 132.95C505.685 136.405 499.184 138.152 491.926 138.152V142.152V146.152C500.54 146.152 508.46 144.059 515.596 139.834L513.558 136.392ZM493.334 132.296V136.296C499.645 136.296 505.421 134.582 510.544 131.134L508.31 127.816L506.076 124.498C502.325 127.023 498.116 128.296 493.334 128.296V132.296ZM508.31 127.816L510.587 131.105C515.591 127.64 519.488 123.108 522.256 117.573L518.678 115.784L515.1 113.995C512.918 118.359 509.903 121.848 506.033 124.527L508.31 127.816ZM518.678 115.784L522.244 117.597C525.093 111.994 526.518 105.995 526.518 99.656H522.518H518.518C518.518 104.751 517.383 109.505 515.112 113.971L518.678 115.784ZM522.518 99.656H526.518C526.518 92.3773 524.384 86.2183 519.577 81.8482L516.886 84.808L514.195 87.7678C516.898 90.2244 518.518 93.964 518.518 99.656H522.518ZM516.886 84.808L519.613 81.8816C515.043 77.6232 509.343 75.56 502.806 75.56V79.56V83.56C507.533 83.56 511.22 84.9955 514.159 87.7344L516.886 84.808ZM502.806 79.56V75.56C496.47 75.56 490.707 77.3313 485.651 80.9001L487.958 84.168L490.265 87.4359C493.913 84.8607 498.049 83.56 502.806 83.56V79.56ZM487.958 84.168L485.695 80.8699C480.728 84.2785 476.907 88.8498 474.232 94.485L477.846 96.2L481.46 97.915C483.564 93.4809 486.484 90.0308 490.221 87.466L487.958 84.168ZM477.846 96.2L474.232 94.485C471.578 100.078 470.262 106.085 470.262 112.456H474.262H478.262C478.262 107.221 479.335 102.391 481.46 97.915L477.846 96.2ZM474.262 112.456H470.262C470.262 119.551 472.299 125.602 476.844 130.038L479.638 127.176L482.432 124.314C479.809 121.753 478.262 117.99 478.262 112.456H474.262ZM479.638 127.176L476.879 130.073C481.299 134.282 486.895 136.296 493.334 136.296V132.296V128.296C488.68 128.296 485.145 126.897 482.397 124.279L479.638 127.176ZM544.745 105.8L548.68 106.516L548.682 106.505L548.684 106.495L544.745 105.8ZM552.425 86.856L549.177 84.5214L549.17 84.531L552.425 86.856ZM566.889 74.184L568.741 77.7294L568.741 77.7294L566.889 74.184ZM605.545 75.976L602.911 78.9863L602.924 78.9978L602.937 79.0093L605.545 75.976ZM613.609 93.384V97.384H617.894L617.6 93.1088L613.609 93.384ZM601.065 93.384L597.085 93.782L597.445 97.384H601.065V93.384ZM595.817 83.272L593.265 86.3521L593.286 86.3697L593.308 86.387L595.817 83.272ZM566.249 86.472L568.973 89.4013L568.975 89.3996L566.249 86.472ZM556.777 105.8L552.836 105.116L552.829 105.158L552.822 105.201L556.777 105.8ZM561.129 127.304L558.265 130.096L558.283 130.115L558.301 130.132L561.129 127.304ZM587.753 128.712L585.64 125.316L585.623 125.326L585.606 125.337L587.753 128.712ZM596.585 118.472V114.472H594.026L592.953 116.796L596.585 118.472ZM609.129 118.472L612.806 120.048L615.195 114.472H609.129V118.472ZM594.921 135.752L597.14 139.08L597.155 139.07L597.17 139.06L594.921 135.752ZM551.657 134.6L548.852 137.452L548.864 137.464L548.876 137.475L551.657 134.6ZM544.745 105.8L548.684 106.495C549.872 99.7612 552.225 94.0182 555.68 89.181L552.425 86.856L549.17 84.531C544.945 90.4458 542.178 97.3321 540.806 105.105L544.745 105.8ZM552.425 86.856L555.673 89.1905C559.25 84.214 563.601 80.4145 568.741 77.7294L566.889 74.184L565.037 70.6386C558.742 73.9268 553.451 78.5754 549.177 84.5215L552.425 86.856ZM566.889 74.184L568.741 77.7294C573.868 75.0511 579.417 73.704 585.449 73.704V69.704V65.704C578.169 65.704 571.345 67.3436 565.037 70.6386L566.889 74.184ZM585.449 69.704V73.704C593.447 73.704 599.087 75.6402 602.911 78.9863L605.545 75.976L608.179 72.9657C602.446 67.9492 594.688 65.704 585.449 65.704V69.704ZM605.545 75.976L602.937 79.0093C606.859 82.3808 609.167 87.1172 609.618 93.6592L613.609 93.384L617.6 93.1088C617.027 84.8028 613.959 77.9339 608.153 72.9427L605.545 75.976ZM613.609 93.384V89.384H601.065V93.384V97.384H613.609V93.384ZM601.065 93.384L605.045 92.986C604.522 87.7557 602.31 83.3658 598.326 80.157L595.817 83.272L593.308 86.387C595.468 88.1276 596.755 90.479 597.085 93.782L601.065 93.384ZM595.817 83.272L598.369 80.1919C594.463 76.9554 589.408 75.56 583.657 75.56V79.56V83.56C588.146 83.56 591.198 84.6392 593.265 86.3521L595.817 83.272ZM583.657 79.56V75.56C575.972 75.56 569.2 78.2594 563.523 83.5444L566.249 86.472L568.975 89.3996C573.197 85.4686 578.03 83.56 583.657 83.56V79.56ZM566.249 86.472L563.525 83.5427C557.862 88.8085 554.394 96.1338 552.836 105.116L556.777 105.8L560.718 106.484C562.061 98.7409 564.908 93.1808 568.973 89.4013L566.249 86.472ZM556.777 105.8L552.822 105.201C552.379 108.125 552.137 110.688 552.137 112.84H556.137H560.137C560.137 111.238 560.322 109.107 560.732 106.399L556.777 105.8ZM556.137 112.84H552.137C552.137 119.781 554.006 125.728 558.265 130.096L561.129 127.304L563.993 124.512C561.596 122.053 560.137 118.358 560.137 112.84H556.137ZM561.129 127.304L558.301 130.132C562.512 134.343 568.037 136.296 574.441 136.296V132.296V128.296C569.751 128.296 566.402 126.921 563.957 124.476L561.129 127.304ZM574.441 132.296V136.296C580.205 136.296 585.412 134.943 589.901 132.087L587.753 128.712L585.606 125.337C582.585 127.26 578.917 128.296 574.441 128.296V132.296ZM587.753 128.712L589.866 132.108C594.423 129.273 597.869 125.235 600.217 120.148L596.585 118.472L592.953 116.796C591.205 120.584 588.763 123.373 585.64 125.316L587.753 128.712ZM596.585 118.472V122.472H609.129V118.472V114.472H596.585V118.472ZM609.129 118.472L605.452 116.896C602.679 123.368 598.435 128.525 592.672 132.444L594.921 135.752L597.17 139.06C604.207 134.275 609.435 127.912 612.806 120.048L609.129 118.472ZM594.921 135.752L592.702 132.424C587.023 136.21 580.388 138.152 572.649 138.152V142.152V146.152C581.806 146.152 590.019 143.828 597.14 139.08L594.921 135.752ZM572.649 142.152V138.152C564.662 138.152 558.744 135.889 554.438 131.725L551.657 134.6L548.876 137.475C554.981 143.38 563.057 146.152 572.649 146.152V142.152ZM551.657 134.6L554.462 131.748C550.264 127.62 547.977 121.867 547.977 113.992H543.977H539.977C539.977 123.525 542.81 131.51 548.852 137.452L551.657 134.6ZM543.977 113.992H547.977C547.977 111.605 548.208 109.115 548.68 106.516L544.745 105.8L540.81 105.084C540.258 108.117 539.977 111.088 539.977 113.992H543.977Z" fill="#2B579A" mask="url(#path-7-outside-1_1410_315)"/>
</svg>
